<svg id="Layer_1" enable-background="new 0 0 512.032 512.032" height="512" viewBox="0 0 512.032 512.032" width="512" xmlns="http://www.w3.org/2000/svg"><g><path d="m464.032 392.016h-128c20.632-48.176 27.366-86.218 32-128h64c4.843 43.662 12.026 81.384 32 128z" fill="#edebfd"/><path d="m432.032 264.016h-32c4.843 43.662 12.025 81.384 32 128h32c-19.677-45.922-27.05-83.372-32-128z" fill="#d2d2fc"/><path d="m504.032 440.016h-145.05c-4.54-9.95-6.95-20.85-6.95-32h-8c-2.908-5.104-5.669-10.202-8.59-16h136.59c0 15.11 7.11 29.33 19.2 38.4z" fill="#edebfd"/><path d="m491.232 430.417c-12.09-9.07-19.2-23.29-19.2-38.4h-40c0 15.11 7.11 29.33 19.2 38.4l12.8 9.6h40z" fill="#d2d2fc"/><path d="m504.032 440.016v16c0 8.84-7.16 16-16 16h-104c-10.581-10.581-18.384-17.315-25.05-32z" fill="#9da0df"/><path d="m504.032 440.016v16c0 8.84-7.16 16-16 16h-40c8.84 0 16-7.16 16-16v-16z" fill="#8286c6"/><path d="m456.032 248.016c0 8.854-7.16 16-16 16h-80c-8.84 0-16-7.16-16-16 0-8.854 7.16-16 16-16h80c8.841 0 16 7.16 16 16z" fill="#edebfd"/><path d="m440.032 232.016h-32c8.84 0 16 7.16 16 16 0 8.854-7.16 16-16 16h32c4.42 0 8.42-1.79 11.32-4.68 9.977-10.013 2.978-27.32-11.32-27.32z" fill="#d2d2fc"/><circle cx="400.032" cy="184.016" fill="#edebfd" r="48"/><path d="m384.032 138.758c18.641 6.591 32 24.359 32 45.258 0 20.897-13.359 38.667-32 45.258 31.104 10.996 64-12.05 64-45.258 0-33.251-32.931-56.241-64-45.258z" fill="#d2d2fc"/><path d="m176.032 392.016h-128c7.96-18.56 14.52-37.66 19.66-57.14 7.566-28.675 9.878-48.664 12.34-70.86h64c4.843 43.662 12.026 81.384 32 128z" fill="#edebfd"/><path d="m144.032 264.016h-32c4.843 43.662 12.025 81.384 32 128h32c-19.677-45.922-27.05-83.372-32-128z" fill="#d2d2fc"/><path d="m176.623 392.016c-2.906 5.767-5.663 10.863-8.59 16h-8c0 11.684-2.758 23.066-6.95 32h-145.051c12.391-9.293 20.755-14.189 26.93-26.54 3.29-6.57 5.07-13.9 5.07-21.46z" fill="#edebfd"/><path d="m153.082 440.016c-6.583 14.599-14.78 21.73-25.05 32h-104c-8.84 0-16-7.16-16-16v-16z" fill="#9da0df"/><path d="m168.032 248.016c0 8.854-7.16 16-16 16h-80c-8.84 0-16-7.16-16-16 0-8.854 7.16-16 16-16h80c8.841 0 16 7.16 16 16z" fill="#edebfd"/><path d="m152.032 232.016h-40c8.84 0 16 7.16 16 16 0 8.854-7.16 16-16 16h40c4.42 0 8.42-1.79 11.32-4.68 9.977-10.013 2.978-27.32-11.32-27.32z" fill="#d2d2fc"/><circle cx="112.032" cy="184.016" fill="#edebfd" r="48"/><path d="m96.032 138.758c18.641 6.591 32 24.359 32 45.258 0 20.897-13.359 38.667-32 45.258 31.104 10.996 64-12.05 64-45.258 0-33.251-32.931-56.241-64-45.258z" fill="#d2d2fc"/><path d="m360.432 392.016h-24.4c4.06-9.48 7.76-19.1 11.09-28.83 3.769 9.277 8.218 19.051 13.31 28.83z" fill="#d2d2fc"/><path d="m408.032 472.016h-24c-10.581-10.581-18.384-17.315-25.05-32h24.9c5.809 11.189 11.792 16.322 21.81 26.34 1.53 1.53 2.34 3.58 2.34 5.66z" fill="#8286c6"/><path d="m148.873 448.016c-5.927 9.81-11.621 14.781-20.84 24h-22c0-2.08.81-4.13 2.34-5.66 9.35-9.35 12.775-12.422 16.93-18.34z" fill="#8286c6"/><path d="m172.462 400.016c-1.44 2.69-2.92 5.35-4.43 8h-8c0 11.684-2.758 23.066-6.95 32h-22.89c5.162-9.956 7.84-20.768 7.84-32 0-4.42 3.58-8 8-8z" fill="#d2d2fc"/><path d="m383.883 440.016h-24.9c-4.54-9.95-6.95-20.85-6.95-32h-8c-1.51-2.65-2.99-5.31-4.43-8h28.43c4.42 0 8 3.58 8 8-.001 11.259 2.706 22.167 7.85 32z" fill="#d2d2fc"/><path d="m304.032 56.016c0 8.809-7.136 16-16 16h-16v40h-32v-40h-16c-8.837 0-16-7.163-16-16 0-8.809 7.136-16 16-16h16v-16c0-8.837 7.163-16 16-16 8.809 0 16 7.136 16 16v16h16c8.837 0 16 7.164 16 16z" fill="#9da0df"/><g fill="#8286c6"><path d="m256.032 72.016h16v40h-16z"/><path d="m288.032 40.016h-16c8.836 0 16 7.164 16 16 0 8.836-7.164 16-16 16h16c8.836 0 16-7.164 16-16 0-8.836-7.163-16-16-16z"/><path d="m248.032 10.174c4.778 2.768 8 7.923 8 13.842v16h16v-16c0-12.392-13.448-19.956-24-13.842z"/></g><path d="m296.032 184.016h-80l-22.001-49.502c-4.702-10.581 3.042-22.498 14.621-22.498h94.76c11.579 0 19.323 11.918 14.621 22.498z" fill="#9da0df"/><path d="m303.412 112.016h-39c11.578 0 19.323 11.917 14.621 22.498l-22.001 49.502h39l22.001-49.502c4.703-10.58-3.042-22.498-14.621-22.498z" fill="#8286c6"/><path d="m216.032 184.016h80v32h-80z" fill="#9da0df"/><path d="m256.032 184.016h40v32h-40z" fill="#8286c6"/><path d="m312.032 232.016c0 8.854-7.16 16-16 16h-80c-8.84 0-16-7.16-16-16 0-8.854 7.16-16 16-16h80c8.841 0 16 7.16 16 16z" fill="#696ead"/><path d="m296.032 216.016h-40c8.84 0 16 7.16 16 16 0 8.854-7.16 16-16 16h40c4.42 0 8.42-1.79 11.32-4.68 9.977-10.013 2.978-27.32-11.32-27.32z" fill="#505795"/><path d="m344.032 408.016h-176c35.782-62.526 40.558-111.607 48-160h80c8.173 53.14 12.913 98.688 48 160z" fill="#9da0df"/><path d="m296.032 248.016h-32c7.355 47.826 12.093 97.256 48 160h32c-35.325-61.728-40.139-108.884-48-160z" fill="#8286c6"/><path d="m384.032 472.016h-256l9.37-9.37c14.599-14.6 22.63-34.308 22.63-54.63h192c0 20.879 8.443 40.442 22.63 54.63z" fill="#9da0df"/><path d="m384.032 472.016v16c0 8.84-7.16 16-16 16h-224c-8.84 0-16-7.16-16-16v-16z" fill="#696ead"/><path d="m374.662 462.646c-14.187-14.188-22.63-33.751-22.63-54.63h-40c0 11.15 2.41 22.05 6.95 32 6.637 14.621 14.56 21.51 25.05 32h40z" fill="#8286c6"/><path d="m344.032 472.016v16c0 8.84-7.16 16-16 16h40c8.84 0 16-7.16 16-16v-16z" fill="#505795"/><path d="m512.032 440.053c0-1.998-.741-3.977-2.164-5.496-.741-.798-.285-.378-13.835-10.54-10.02-7.517-16.001-19.479-16.001-32.001 0-4.418-3.582-8-8-8h-2.672c-15.258-36.92-24.064-73.052-28.393-112.023 12.801-.494 23.065-11.057 23.065-23.977 0-12.406-9.633-24-24.861-24 10.394-10.172 16.861-24.342 16.861-40 0-30.879-25.121-56-56-56s-56 25.121-56 56c0 15.658 6.467 29.828 16.861 40-15.196 0-24.861 11.574-24.861 24 0 12.92 10.264 23.482 23.065 23.977-3.822 34.394-11.048 66.709-23.924 100.729-20.807-47.048-24.426-81.673-30.089-118.484 20.404-8.342 19.701-37.485-1.052-44.846v-17.376h8c4.418 0 8-3.582 8-8s-3.582-8-8-8h-3.69l17.001-38.253c7.056-15.877-4.583-33.747-21.932-33.747h-23.38v-24h8c13.233 0 24-10.767 24-24s-10.767-24-24-24h-8v-8c0-13.233-10.767-24-24-24s-24 10.767-24 24v8h-8c-13.233 0-24 10.767-24 24s10.767 24 24 24h8v24h-23.38c-17.372 0-28.979 17.892-21.932 33.747l17.001 38.253h-3.69c-4.418 0-8 3.582-8 8s3.582 8 8 8h8v17.376c-20.767 7.366-21.437 36.511-1.052 44.846-6.618 43.017-9.947 72.941-30.089 118.484-12.858-33.972-20.099-66.291-23.924-100.729 12.801-.494 23.065-11.057 23.065-23.977 0-12.406-9.633-24-24.861-24 10.394-10.172 16.861-24.342 16.861-40 0-30.879-25.121-56-56-56s-56 25.121-56 56c0 15.658 6.467 29.828 16.861 40-15.196 0-24.861 11.574-24.861 24 0 12.92 10.264 23.482 23.065 23.977-4.324 38.911-13.108 75.04-28.393 112.023h-2.672c-4.418 0-8 3.582-8 8 0 6.178-1.461 12.36-4.226 17.882-5.241 10.481-12.158 14.406-24.574 23.718-.908.674-1.76 1.661-2.333 2.793-1.157 2.259-.867 2.439-.867 19.607 0 13.233 10.767 24 24 24h96v8c0 13.233 10.767 24 24 24h224c13.233 0 24-10.767 24-24v-8h96c13.233 0 24-10.767 24-24 .002-9.277.002-6.639.002-15.963zm-31.181-8.037h-116.552c-2.796-7.583-4.266-15.677-4.266-24 0-4.418-3.582-8-8-8h112.582c1.769 12.11 7.5 23.414 16.236 32zm-333.783 32c11.809-13.518 18.949-30.181 20.597-48h176.736c1.647 17.819 8.788 34.482 20.597 48-25.409 0-192.197 0-217.93 0zm212.964-280c0-22.056 17.944-40 40-40s40 17.944 40 40-17.944 40-40 40-40-17.944-40-40zm-8 64c0-4.411 3.589-8 8-8h80c4.411 0 8 3.589 8 8s-3.589 8-8 8c-16.203 0-63.957 0-80 0-4.411 0-8-3.589-8-8zm23.161 24h49.68c4.273 38.512 12.11 73.757 27.216 112h-104.112c15.145-38.342 22.953-73.595 27.216-112zm-151.161-80h64v16h-64zm16-128h-16c-4.411 0-8-3.589-8-8s3.589-8 8-8h16c4.418 0 8-3.582 8-8v-16c0-4.411 3.589-8 8-8s8 3.589 8 8v16c0 4.418 3.582 8 8 8h16c4.411 0 8 3.589 8 8s-3.589 8-8 8h-16c-4.418 0-8 3.582-8 8v32h-16v-32c0-4.418-3.582-8-8-8zm-31.379 56h94.76c5.796 0 9.668 5.943 7.311 11.249l-19.89 44.751h-69.602l-19.89-44.751c-2.353-5.297 1.504-11.249 7.311-11.249zm7.379 104h80c4.411 0 8 3.589 8 8s-3.589 8-8 8h-80c-4.411 0-8-3.589-8-8s3.589-8 8-8zm6.864 32h66.273c6.758 43.929 11.415 86.604 41.375 144h-149.023c27.722-53.109 33.141-90.472 41.375-144zm-150.864-72c0-22.056 17.944-40 40-40s40 17.944 40 40-17.944 40-40 40-40-17.944-40-40zm-8 64c0-4.411 3.589-8 8-8h80c4.411 0 8 3.589 8 8s-3.589 8-8 8c-16.203 0-63.957 0-80 0-4.411 0-8-3.589-8-8zm23.161 24h49.68c4.273 38.512 12.11 73.757 27.216 112h-104.112c15.145-38.342 22.953-73.595 27.216-112zm-39.741 128h112.58c-4.418 0-8 3.582-8 8 0 8.323-1.47 16.417-4.266 24h-116.556c8.59-8.434 14.428-19.509 16.242-32zm-31.42 56v-8h123.276c-4.306 6.058-7.565 8.974-14.591 16h-100.685c-4.411 0-8-3.589-8-8zm360 32c0 4.411-3.589 8-8 8h-224c-4.411 0-8-3.589-8-8v-8h240zm120-32c0 4.411-3.589 8-8 8h-100.685c-7.183-7.183-10.353-10.038-14.591-16h123.276z"/></g></svg>